<mxfile host="Electron" modified="2024-10-12T11:00:31.593Z" agent="Mozilla/5.0 (Macintosh; Intel Mac OS X 10_15_7) AppleWebKit/537.36 (KHTML, like Gecko) draw.io/24.5.3 Chrome/124.0.6367.207 Electron/30.0.6 Safari/537.36" etag="Gc2yZQDP21L0FZQ-9msc" version="24.5.3" type="device" pages="4">
  <diagram name="首页1" id="JeKtLhlmnwfWFVigyM52">
    <mxGraphModel dx="763" dy="539" grid="1" gridSize="10" guides="1" tooltips="1" connect="1" arrows="1" fold="1" page="1" pageScale="1" pageWidth="850" pageHeight="1100" math="0" shadow="0">
      <root>
        <mxCell id="uLVkAg-No_3vYthOXZXG-0" />
        <mxCell id="uLVkAg-No_3vYthOXZXG-1" parent="uLVkAg-No_3vYthOXZXG-0" />
        <mxCell id="uLVkAg-No_3vYthOXZXG-2" value="" style="rounded=0;whiteSpace=wrap;html=1;movable=0;resizable=0;rotatable=0;deletable=0;editable=0;locked=1;connectable=0;" vertex="1" parent="uLVkAg-No_3vYthOXZXG-1">
          <mxGeometry x="40" y="160" width="760" height="480" as="geometry" />
        </mxCell>
        <mxCell id="uLVkAg-No_3vYthOXZXG-3" value="DEBUG SYSTEM" style="rounded=0;whiteSpace=wrap;html=1;fillColor=#FF9999;" vertex="1" parent="uLVkAg-No_3vYthOXZXG-1">
          <mxGeometry x="40" y="160" width="760" height="40" as="geometry" />
        </mxCell>
        <mxCell id="uLVkAg-No_3vYthOXZXG-4" value="" style="rounded=0;whiteSpace=wrap;html=1;" vertex="1" parent="uLVkAg-No_3vYthOXZXG-1">
          <mxGeometry x="40" y="200" width="130" height="440" as="geometry" />
        </mxCell>
        <mxCell id="uLVkAg-No_3vYthOXZXG-5" value="首页" style="rounded=0;whiteSpace=wrap;html=1;" vertex="1" parent="uLVkAg-No_3vYthOXZXG-1">
          <mxGeometry x="40" y="200" width="130" height="40" as="geometry" />
        </mxCell>
        <mxCell id="uLVkAg-No_3vYthOXZXG-6" value="BUG检索" style="rounded=0;whiteSpace=wrap;html=1;" vertex="1" parent="uLVkAg-No_3vYthOXZXG-1">
          <mxGeometry x="40" y="240" width="130" height="40" as="geometry" />
        </mxCell>
        <mxCell id="rDWR1ZieyAalPdPqhEKz-0" value="新规类" style="rounded=0;whiteSpace=wrap;html=1;" vertex="1" parent="uLVkAg-No_3vYthOXZXG-1">
          <mxGeometry x="650" y="230" width="100" height="40" as="geometry" />
        </mxCell>
        <mxCell id="ZA0ctwc0VG-7hXbFLkKi-0" value="Java系" style="rounded=0;whiteSpace=wrap;html=1;" vertex="1" parent="uLVkAg-No_3vYthOXZXG-1">
          <mxGeometry x="210" y="340" width="210" height="40" as="geometry" />
        </mxCell>
        <mxCell id="ZA0ctwc0VG-7hXbFLkKi-1" value="Python系" style="rounded=0;whiteSpace=wrap;html=1;" vertex="1" parent="uLVkAg-No_3vYthOXZXG-1">
          <mxGeometry x="460" y="340" width="210" height="40" as="geometry" />
        </mxCell>
        <mxCell id="ZA0ctwc0VG-7hXbFLkKi-3" value="linux系" style="rounded=0;whiteSpace=wrap;html=1;" vertex="1" parent="uLVkAg-No_3vYthOXZXG-1">
          <mxGeometry x="210" y="430" width="210" height="40" as="geometry" />
        </mxCell>
        <mxCell id="ZA0ctwc0VG-7hXbFLkKi-4" value="vue系" style="rounded=0;whiteSpace=wrap;html=1;" vertex="1" parent="uLVkAg-No_3vYthOXZXG-1">
          <mxGeometry x="460" y="430" width="210" height="40" as="geometry" />
        </mxCell>
      </root>
    </mxGraphModel>
  </diagram>
  <diagram name="首页2" id="vq-HMGgJBdpzq9eGKyt3">
    <mxGraphModel dx="795" dy="562" grid="1" gridSize="10" guides="1" tooltips="1" connect="1" arrows="1" fold="1" page="1" pageScale="1" pageWidth="850" pageHeight="1100" math="0" shadow="0">
      <root>
        <mxCell id="Xv2Txo00BqM7MxigzvJu-0" />
        <mxCell id="Xv2Txo00BqM7MxigzvJu-1" parent="Xv2Txo00BqM7MxigzvJu-0" />
        <mxCell id="Xv2Txo00BqM7MxigzvJu-2" value="" style="rounded=0;whiteSpace=wrap;html=1;movable=0;resizable=0;rotatable=0;deletable=0;editable=0;locked=1;connectable=0;" vertex="1" parent="Xv2Txo00BqM7MxigzvJu-1">
          <mxGeometry x="40" y="160" width="760" height="480" as="geometry" />
        </mxCell>
        <mxCell id="Xv2Txo00BqM7MxigzvJu-3" value="DEBUG SYSTEM" style="rounded=0;whiteSpace=wrap;html=1;fillColor=#FF9999;" vertex="1" parent="Xv2Txo00BqM7MxigzvJu-1">
          <mxGeometry x="40" y="160" width="760" height="40" as="geometry" />
        </mxCell>
        <mxCell id="Xv2Txo00BqM7MxigzvJu-4" value="" style="rounded=0;whiteSpace=wrap;html=1;" vertex="1" parent="Xv2Txo00BqM7MxigzvJu-1">
          <mxGeometry x="40" y="200" width="130" height="440" as="geometry" />
        </mxCell>
        <mxCell id="Xv2Txo00BqM7MxigzvJu-5" value="首页" style="rounded=0;whiteSpace=wrap;html=1;" vertex="1" parent="Xv2Txo00BqM7MxigzvJu-1">
          <mxGeometry x="40" y="200" width="130" height="40" as="geometry" />
        </mxCell>
        <mxCell id="Xv2Txo00BqM7MxigzvJu-6" value="BUG检索" style="rounded=0;whiteSpace=wrap;html=1;" vertex="1" parent="Xv2Txo00BqM7MxigzvJu-1">
          <mxGeometry x="40" y="240" width="130" height="40" as="geometry" />
        </mxCell>
        <mxCell id="Wk3FR-KcC4ZNuNif3a0I-1" value="" style="rounded=0;whiteSpace=wrap;html=1;" vertex="1" parent="Xv2Txo00BqM7MxigzvJu-1">
          <mxGeometry x="170" y="200" width="630" height="80" as="geometry" />
        </mxCell>
        <mxCell id="Wk3FR-KcC4ZNuNif3a0I-2" value="Java系" style="text;html=1;align=center;verticalAlign=middle;whiteSpace=wrap;rounded=0;" vertex="1" parent="Xv2Txo00BqM7MxigzvJu-1">
          <mxGeometry x="425" y="225" width="60" height="30" as="geometry" />
        </mxCell>
        <mxCell id="Vu8QTU-F6pbSYM3yS_lC-0" value="Bug名称" style="rounded=0;whiteSpace=wrap;html=1;" vertex="1" parent="Xv2Txo00BqM7MxigzvJu-1">
          <mxGeometry x="170" y="280" width="220" height="40" as="geometry" />
        </mxCell>
        <mxCell id="Vu8QTU-F6pbSYM3yS_lC-1" value="类别" style="rounded=0;whiteSpace=wrap;html=1;" vertex="1" parent="Xv2Txo00BqM7MxigzvJu-1">
          <mxGeometry x="390" y="280" width="120" height="40" as="geometry" />
        </mxCell>
        <mxCell id="Vu8QTU-F6pbSYM3yS_lC-2" value="发生时间" style="rounded=0;whiteSpace=wrap;html=1;" vertex="1" parent="Xv2Txo00BqM7MxigzvJu-1">
          <mxGeometry x="510" y="280" width="190" height="40" as="geometry" />
        </mxCell>
        <mxCell id="Vu8QTU-F6pbSYM3yS_lC-3" value="操作" style="rounded=0;whiteSpace=wrap;html=1;" vertex="1" parent="Xv2Txo00BqM7MxigzvJu-1">
          <mxGeometry x="700" y="280" width="100" height="40" as="geometry" />
        </mxCell>
        <mxCell id="Vu8QTU-F6pbSYM3yS_lC-4" value="&amp;nbsp;属性名字错误" style="rounded=0;whiteSpace=wrap;html=1;" vertex="1" parent="Xv2Txo00BqM7MxigzvJu-1">
          <mxGeometry x="170" y="320" width="220" height="40" as="geometry" />
        </mxCell>
        <mxCell id="Vu8QTU-F6pbSYM3yS_lC-5" value="JAVA" style="rounded=0;whiteSpace=wrap;html=1;" vertex="1" parent="Xv2Txo00BqM7MxigzvJu-1">
          <mxGeometry x="390" y="320" width="120" height="40" as="geometry" />
        </mxCell>
        <mxCell id="Vu8QTU-F6pbSYM3yS_lC-6" value="2024-10-12" style="rounded=0;whiteSpace=wrap;html=1;" vertex="1" parent="Xv2Txo00BqM7MxigzvJu-1">
          <mxGeometry x="510" y="320" width="190" height="40" as="geometry" />
        </mxCell>
        <mxCell id="Vu8QTU-F6pbSYM3yS_lC-7" value="详细（button）" style="rounded=0;whiteSpace=wrap;html=1;" vertex="1" parent="Xv2Txo00BqM7MxigzvJu-1">
          <mxGeometry x="700" y="320" width="100" height="40" as="geometry" />
        </mxCell>
        <mxCell id="M5cEFG7_2GSgGorKkNnY-0" value="字段类型错误" style="rounded=0;whiteSpace=wrap;html=1;" vertex="1" parent="Xv2Txo00BqM7MxigzvJu-1">
          <mxGeometry x="170" y="360" width="220" height="40" as="geometry" />
        </mxCell>
        <mxCell id="M5cEFG7_2GSgGorKkNnY-1" value="JAVA" style="rounded=0;whiteSpace=wrap;html=1;" vertex="1" parent="Xv2Txo00BqM7MxigzvJu-1">
          <mxGeometry x="390" y="360" width="120" height="40" as="geometry" />
        </mxCell>
        <mxCell id="M5cEFG7_2GSgGorKkNnY-2" value="2024-10-12" style="rounded=0;whiteSpace=wrap;html=1;" vertex="1" parent="Xv2Txo00BqM7MxigzvJu-1">
          <mxGeometry x="510" y="360" width="190" height="40" as="geometry" />
        </mxCell>
        <mxCell id="M5cEFG7_2GSgGorKkNnY-3" value="详细（button）" style="rounded=0;whiteSpace=wrap;html=1;" vertex="1" parent="Xv2Txo00BqM7MxigzvJu-1">
          <mxGeometry x="700" y="360" width="100" height="40" as="geometry" />
        </mxCell>
      </root>
    </mxGraphModel>
  </diagram>
  <diagram name="检索画面" id="GjOWnVN9xjqec9lDzdVl">
    <mxGraphModel dx="795" dy="562" grid="1" gridSize="10" guides="1" tooltips="1" connect="1" arrows="1" fold="1" page="1" pageScale="1" pageWidth="850" pageHeight="1100" math="0" shadow="0">
      <root>
        <mxCell id="0" />
        <mxCell id="1" parent="0" />
        <mxCell id="a0Vjuy0bxZ_yaMu9A0wO-2" value="" style="rounded=0;whiteSpace=wrap;html=1;movable=0;resizable=0;rotatable=0;deletable=0;editable=0;locked=1;connectable=0;" vertex="1" parent="1">
          <mxGeometry x="40" y="160" width="760" height="480" as="geometry" />
        </mxCell>
        <mxCell id="a0Vjuy0bxZ_yaMu9A0wO-3" value="DEBUG SYSTEM" style="rounded=0;whiteSpace=wrap;html=1;fillColor=#FF9999;" vertex="1" parent="1">
          <mxGeometry x="40" y="160" width="760" height="40" as="geometry" />
        </mxCell>
        <mxCell id="a0Vjuy0bxZ_yaMu9A0wO-6" value="" style="rounded=0;whiteSpace=wrap;html=1;" vertex="1" parent="1">
          <mxGeometry x="40" y="200" width="130" height="440" as="geometry" />
        </mxCell>
        <mxCell id="a0Vjuy0bxZ_yaMu9A0wO-7" value="首页" style="rounded=0;whiteSpace=wrap;html=1;" vertex="1" parent="1">
          <mxGeometry x="40" y="200" width="130" height="40" as="geometry" />
        </mxCell>
        <mxCell id="a0Vjuy0bxZ_yaMu9A0wO-8" value="BUG检索" style="rounded=0;whiteSpace=wrap;html=1;" vertex="1" parent="1">
          <mxGeometry x="40" y="240" width="130" height="40" as="geometry" />
        </mxCell>
        <mxCell id="a0Vjuy0bxZ_yaMu9A0wO-9" value="" style="rounded=0;whiteSpace=wrap;html=1;movable=0;resizable=0;rotatable=0;deletable=0;editable=0;locked=1;connectable=0;" vertex="1" parent="1">
          <mxGeometry x="170" y="360" width="630" height="280" as="geometry" />
        </mxCell>
        <mxCell id="a0Vjuy0bxZ_yaMu9A0wO-10" value="" style="rounded=0;whiteSpace=wrap;html=1;" vertex="1" parent="1">
          <mxGeometry x="290" y="230" width="110" height="30" as="geometry" />
        </mxCell>
        <mxCell id="a0Vjuy0bxZ_yaMu9A0wO-11" value="名称" style="text;html=1;align=center;verticalAlign=middle;whiteSpace=wrap;rounded=0;" vertex="1" parent="1">
          <mxGeometry x="230" y="230" width="60" height="30" as="geometry" />
        </mxCell>
        <mxCell id="a0Vjuy0bxZ_yaMu9A0wO-12" value="" style="rounded=0;whiteSpace=wrap;html=1;" vertex="1" parent="1">
          <mxGeometry x="510" y="230" width="110" height="30" as="geometry" />
        </mxCell>
        <mxCell id="a0Vjuy0bxZ_yaMu9A0wO-13" value="类别" style="text;html=1;align=center;verticalAlign=middle;whiteSpace=wrap;rounded=0;" vertex="1" parent="1">
          <mxGeometry x="450" y="230" width="60" height="30" as="geometry" />
        </mxCell>
        <mxCell id="a0Vjuy0bxZ_yaMu9A0wO-14" value="" style="rounded=0;whiteSpace=wrap;html=1;" vertex="1" parent="1">
          <mxGeometry x="290" y="300" width="110" height="30" as="geometry" />
        </mxCell>
        <mxCell id="a0Vjuy0bxZ_yaMu9A0wO-15" value="时间" style="text;html=1;align=center;verticalAlign=middle;whiteSpace=wrap;rounded=0;" vertex="1" parent="1">
          <mxGeometry x="230" y="300" width="60" height="30" as="geometry" />
        </mxCell>
        <mxCell id="a0Vjuy0bxZ_yaMu9A0wO-16" value="1/3" style="text;html=1;align=center;verticalAlign=middle;whiteSpace=wrap;rounded=0;" vertex="1" parent="1">
          <mxGeometry x="425" y="600" width="60" height="30" as="geometry" />
        </mxCell>
        <mxCell id="a0Vjuy0bxZ_yaMu9A0wO-19" value="next page" style="text;html=1;align=center;verticalAlign=middle;whiteSpace=wrap;rounded=0;" vertex="1" parent="1">
          <mxGeometry x="500" y="600" width="60" height="30" as="geometry" />
        </mxCell>
        <mxCell id="a0Vjuy0bxZ_yaMu9A0wO-20" value="last page" style="text;html=1;align=center;verticalAlign=middle;whiteSpace=wrap;rounded=0;" vertex="1" parent="1">
          <mxGeometry x="315" y="600" width="60" height="30" as="geometry" />
        </mxCell>
        <mxCell id="a0Vjuy0bxZ_yaMu9A0wO-24" value="" style="rounded=0;whiteSpace=wrap;html=1;" vertex="1" parent="1">
          <mxGeometry x="170" y="360" width="630" height="40" as="geometry" />
        </mxCell>
        <mxCell id="a0Vjuy0bxZ_yaMu9A0wO-25" value="Bug名称" style="rounded=0;whiteSpace=wrap;html=1;" vertex="1" parent="1">
          <mxGeometry x="170" y="360" width="220" height="40" as="geometry" />
        </mxCell>
        <mxCell id="a0Vjuy0bxZ_yaMu9A0wO-26" value="类别" style="rounded=0;whiteSpace=wrap;html=1;" vertex="1" parent="1">
          <mxGeometry x="390" y="360" width="120" height="40" as="geometry" />
        </mxCell>
        <mxCell id="a0Vjuy0bxZ_yaMu9A0wO-27" value="发生时间" style="rounded=0;whiteSpace=wrap;html=1;" vertex="1" parent="1">
          <mxGeometry x="510" y="360" width="190" height="40" as="geometry" />
        </mxCell>
        <mxCell id="a0Vjuy0bxZ_yaMu9A0wO-28" value="操作" style="rounded=0;whiteSpace=wrap;html=1;" vertex="1" parent="1">
          <mxGeometry x="700" y="360" width="100" height="40" as="geometry" />
        </mxCell>
        <mxCell id="Uk95CwiQpH340KWhVReU-21" value="&amp;nbsp;属性名字错误" style="rounded=0;whiteSpace=wrap;html=1;" vertex="1" parent="1">
          <mxGeometry x="170" y="400" width="220" height="40" as="geometry" />
        </mxCell>
        <mxCell id="Uk95CwiQpH340KWhVReU-22" value="JAVA" style="rounded=0;whiteSpace=wrap;html=1;" vertex="1" parent="1">
          <mxGeometry x="390" y="400" width="120" height="40" as="geometry" />
        </mxCell>
        <mxCell id="Uk95CwiQpH340KWhVReU-23" value="2024-10-12" style="rounded=0;whiteSpace=wrap;html=1;" vertex="1" parent="1">
          <mxGeometry x="510" y="400" width="190" height="40" as="geometry" />
        </mxCell>
        <mxCell id="Uk95CwiQpH340KWhVReU-24" value="详细（button）" style="rounded=0;whiteSpace=wrap;html=1;" vertex="1" parent="1">
          <mxGeometry x="700" y="400" width="100" height="40" as="geometry" />
        </mxCell>
        <mxCell id="pOGOvNHSa6P1L2Clg3-A-1" value="字段类型错误" style="rounded=0;whiteSpace=wrap;html=1;" vertex="1" parent="1">
          <mxGeometry x="170" y="440" width="220" height="40" as="geometry" />
        </mxCell>
        <mxCell id="pOGOvNHSa6P1L2Clg3-A-2" value="JAVA" style="rounded=0;whiteSpace=wrap;html=1;" vertex="1" parent="1">
          <mxGeometry x="390" y="440" width="120" height="40" as="geometry" />
        </mxCell>
        <mxCell id="pOGOvNHSa6P1L2Clg3-A-3" value="2024-10-12" style="rounded=0;whiteSpace=wrap;html=1;" vertex="1" parent="1">
          <mxGeometry x="510" y="440" width="190" height="40" as="geometry" />
        </mxCell>
        <mxCell id="pOGOvNHSa6P1L2Clg3-A-4" value="详细（button）" style="rounded=0;whiteSpace=wrap;html=1;" vertex="1" parent="1">
          <mxGeometry x="700" y="440" width="100" height="40" as="geometry" />
        </mxCell>
        <mxCell id="pOGOvNHSa6P1L2Clg3-A-5" value="检索" style="rounded=1;whiteSpace=wrap;html=1;" vertex="1" parent="1">
          <mxGeometry x="517.5" y="295" width="95" height="40" as="geometry" />
        </mxCell>
        <mxCell id="6ukqaqUUtqrn45wtHXXs-1" value="用户权限错误" style="rounded=0;whiteSpace=wrap;html=1;" vertex="1" parent="1">
          <mxGeometry x="170" y="480" width="220" height="40" as="geometry" />
        </mxCell>
        <mxCell id="6ukqaqUUtqrn45wtHXXs-2" value="Linux" style="rounded=0;whiteSpace=wrap;html=1;" vertex="1" parent="1">
          <mxGeometry x="390" y="480" width="120" height="40" as="geometry" />
        </mxCell>
        <mxCell id="6ukqaqUUtqrn45wtHXXs-3" value="2023-10-12" style="rounded=0;whiteSpace=wrap;html=1;" vertex="1" parent="1">
          <mxGeometry x="510" y="480" width="190" height="40" as="geometry" />
        </mxCell>
        <mxCell id="6ukqaqUUtqrn45wtHXXs-4" value="详细（button）" style="rounded=0;whiteSpace=wrap;html=1;" vertex="1" parent="1">
          <mxGeometry x="700" y="480" width="100" height="40" as="geometry" />
        </mxCell>
      </root>
    </mxGraphModel>
  </diagram>
  <diagram id="8TQRMXPSTmhbRoA13xF0" name="SAMPLE">
    <mxGraphModel dx="954" dy="674" grid="1" gridSize="10" guides="1" tooltips="1" connect="1" arrows="1" fold="1" page="1" pageScale="1" pageWidth="850" pageHeight="1100" math="0" shadow="0">
      <root>
        <mxCell id="0" />
        <mxCell id="1" parent="0" />
        <mxCell id="_ufG8ESslcGHIYvXIYRd-1" value="" style="rounded=0;whiteSpace=wrap;html=1;movable=0;resizable=0;rotatable=0;deletable=0;editable=0;locked=1;connectable=0;" vertex="1" parent="1">
          <mxGeometry x="40" y="160" width="760" height="480" as="geometry" />
        </mxCell>
        <mxCell id="_ufG8ESslcGHIYvXIYRd-2" value="DEBUG SYSTEM" style="rounded=0;whiteSpace=wrap;html=1;fillColor=#FF9999;" vertex="1" parent="1">
          <mxGeometry x="40" y="160" width="760" height="40" as="geometry" />
        </mxCell>
        <mxCell id="_ufG8ESslcGHIYvXIYRd-3" value="" style="rounded=0;whiteSpace=wrap;html=1;" vertex="1" parent="1">
          <mxGeometry x="40" y="200" width="130" height="440" as="geometry" />
        </mxCell>
        <mxCell id="_ufG8ESslcGHIYvXIYRd-4" value="首页" style="rounded=0;whiteSpace=wrap;html=1;" vertex="1" parent="1">
          <mxGeometry x="40" y="200" width="130" height="40" as="geometry" />
        </mxCell>
        <mxCell id="_ufG8ESslcGHIYvXIYRd-5" value="BUG检索" style="rounded=0;whiteSpace=wrap;html=1;" vertex="1" parent="1">
          <mxGeometry x="40" y="240" width="130" height="40" as="geometry" />
        </mxCell>
      </root>
    </mxGraphModel>
  </diagram>
</mxfile>
